<svg fill="none" xmlns="http://www.w3.org/2000/svg" viewBox="0 0 20 20"><g clip-path="url(#a)"><mask id="b" style="mask-type:luminance" maskUnits="userSpaceOnUse" x="0" y="0" width="20" height="20"><path d="M10 20c5.523 0 10-4.477 10-10S15.523 0 10 0 0 4.477 0 10s4.477 10 10 10Z" fill="#fff"/></mask><g mask="url(#b)"><path d="m0 0 .313.86L0 1.757v.898l1.25 2.11L0 6.875v1.25L1.25 10 0 11.875v1.25l1.25 2.11L0 17.343V20l.86-.313.898.313h.898l2.11-1.25L6.875 20h1.25L10 18.75 11.875 20h1.25l2.11-1.25L17.343 20H20l-.313-.86.313-.898v-.898l-1.25-2.11L20 13.125v-1.25L18.75 10 20 8.125v-1.25l-1.25-2.11L20 2.657V0l-.86.313L18.243 0h-.898l-2.11 1.25L13.125 0h-1.25L10 1.25 8.125 0h-1.25l-2.11 1.25L2.657 0H0Z" fill="#EEE"/><path d="M13.125 0v4.219L17.344 0h-4.219ZM20 2.656l-4.219 4.219H20V2.656ZM0 6.875h4.219L0 2.656v4.219ZM2.656 0l4.219 4.219V0H2.656Zm4.219 20v-4.219L2.656 20h4.219ZM0 17.344l4.219-4.219H0v4.219Zm20-4.219h-4.219L20 17.344v-4.219ZM17.344 20l-4.219-4.219V20h4.219Z" fill="#0052B4"/><path d="M0 0v1.758l5.117 5.117h1.758L0 0Zm8.125 0v8.125H0v3.75h8.125V20h3.75v-8.125H20v-3.75h-8.125V0h-3.75Zm10.117 0-5.117 5.117v1.758L20 0h-1.758ZM6.875 13.125 0 20h1.758l5.117-5.117v-1.758Zm6.25 0L20 20v-1.758l-5.117-5.117h-1.758Z" fill="#D80027"/></g></g><defs><clipPath id="a"><path fill="#fff" d="M0 0h20v20H0z"/></clipPath></defs></svg>