<svg width="24" height="23" viewBox="0 0 24 23" fill="none" xmlns="http://www.w3.org/2000/svg">
<path d="M16.9884 1.89566C18.3008 1.89941 19.5583 2.4 20.4863 3.2881C21.4143 4.17619 21.9374 5.37963 21.9413 6.63559V16.1144C21.9374 17.3704 21.4143 18.5738 20.4863 19.4619C19.5583 20.35 18.3008 20.8506 16.9884 20.8543H7.08358C5.77118 20.8506 4.51366 20.35 3.58565 19.4619C2.65764 18.5738 2.13456 17.3704 2.13064 16.1144V6.63559C2.13456 5.37963 2.65764 4.17619 3.58565 3.2881C4.51366 2.4 5.77118 1.89941 7.08358 1.89566H16.9884ZM16.9884 0H7.08358C3.26991 0 0.14978 2.98594 0.14978 6.63559V16.1144C0.14978 19.7641 3.26991 22.75 7.08358 22.75H16.9884C20.8021 22.75 23.9222 19.7641 23.9222 16.1144V6.63559C23.9222 2.98594 20.8021 0 16.9884 0Z" fill="white"/>
<path d="M18.4742 6.63574C18.1803 6.63574 17.8931 6.55235 17.6487 6.39611C17.4044 6.23988 17.214 6.01781 17.1015 5.758C16.9891 5.49818 16.9596 5.21229 17.017 4.93647C17.0743 4.66066 17.2158 4.4073 17.4236 4.20845C17.6314 4.0096 17.8961 3.87418 18.1843 3.81931C18.4725 3.76445 18.7713 3.79261 19.0428 3.90023C19.3143 4.00784 19.5463 4.19009 19.7096 4.42392C19.8728 4.65774 19.96 4.93265 19.96 5.21387C19.9604 5.4007 19.9222 5.58578 19.8477 5.75847C19.7732 5.93116 19.6638 6.08807 19.5257 6.22018C19.3877 6.35229 19.2237 6.45701 19.0433 6.52833C18.8628 6.59964 18.6694 6.63614 18.4742 6.63574ZM12.036 7.58332C12.8197 7.58332 13.5857 7.80571 14.2373 8.22236C14.8889 8.63901 15.3967 9.23122 15.6966 9.92408C15.9965 10.617 16.075 11.3794 15.9221 12.1149C15.7692 12.8505 15.3919 13.5261 14.8377 14.0564C14.2836 14.5867 13.5776 14.9478 12.809 15.0941C12.0404 15.2404 11.2437 15.1654 10.5197 14.8784C9.79571 14.5914 9.17689 14.1054 8.74152 13.4818C8.30614 12.8582 8.07376 12.1251 8.07376 11.3752C8.07488 10.3698 8.49269 9.40599 9.23551 8.69511C9.97833 7.98424 10.9855 7.5844 12.036 7.58332ZM12.036 5.68766C10.8606 5.68766 9.71153 6.02122 8.73419 6.64617C7.75685 7.27112 6.99511 8.15939 6.54529 9.19864C6.09547 10.2379 5.97778 11.3815 6.20709 12.4847C6.43641 13.588 7.00244 14.6014 7.83359 15.3968C8.66475 16.1922 9.72371 16.7339 10.8766 16.9534C12.0294 17.1728 13.2244 17.0602 14.3103 16.6297C15.3963 16.1992 16.3245 15.4703 16.9775 14.535C17.6306 13.5997 17.9791 12.5 17.9791 11.3752C17.9791 9.86674 17.353 8.4201 16.2384 7.35349C15.1239 6.28687 13.6122 5.68766 12.036 5.68766Z" fill="white"/>
</svg>
