<svg width="379" height="188" viewBox="0 0 379 188" fill="none" xmlns="http://www.w3.org/2000/svg">
<path d="M189.5 158.721C155.5 158.721 127.819 131.049 127.819 97.0167C127.819 62.9841 155.5 35.3325 189.5 35.3325C223.5 35.3325 251.181 63.0038 251.181 97.0364C251.181 131.069 223.5 158.721 189.5 158.721ZM189.5 37.302C156.583 37.302 129.788 64.087 129.788 97.0364C129.788 129.986 156.583 156.751 189.5 156.751C222.418 156.751 249.212 129.966 249.212 97.0167C249.212 64.0673 222.418 37.302 189.5 37.302Z" fill="#E1B168"/>
<path d="M189.5 170.537C184.519 170.537 179.538 170.025 174.695 169.04C169.97 168.075 165.324 166.638 160.894 164.767C156.523 162.915 152.33 160.631 148.412 157.992C144.514 155.372 140.872 152.339 137.545 149.011C134.217 145.682 131.205 142.019 128.567 138.139C128.311 137.745 128.41 137.214 128.803 136.958C129.197 136.701 129.729 136.8 129.985 137.194C132.544 140.995 135.497 144.579 138.746 147.829C141.994 151.079 145.577 154.033 149.377 156.593C153.216 159.193 157.311 161.419 161.563 163.211C165.895 165.042 170.423 166.441 175.03 167.386C184.48 169.316 194.501 169.316 203.97 167.386C208.577 166.441 213.105 165.042 217.437 163.211C221.689 161.419 225.784 159.173 229.623 156.593C233.423 154.013 237.006 151.079 240.254 147.829C243.503 144.579 246.456 141.015 249.015 137.194C249.271 136.8 249.803 136.701 250.197 136.958C250.59 137.214 250.689 137.745 250.433 138.139C247.795 142.039 244.782 145.702 241.455 149.011C238.128 152.339 234.486 155.352 230.588 157.992C226.67 160.65 222.457 162.935 218.106 164.767C213.676 166.638 209.03 168.075 204.305 169.04C199.462 170.025 194.481 170.537 189.5 170.537Z" fill="#E1B168"/>
<path d="M249.724 57.2528C249.448 57.2528 249.192 57.115 249.015 56.8786C246.456 53.0775 243.503 49.4931 240.254 46.2434C237.006 42.9938 233.442 40.0395 229.623 37.4792C225.784 34.8795 221.689 32.654 217.437 30.8618C213.105 29.0301 208.577 27.6318 203.97 26.6865C194.52 24.7564 184.499 24.7564 175.03 26.6865C170.423 27.6318 165.875 29.0301 161.563 30.8618C157.311 32.6737 153.196 34.8992 149.377 37.4792C145.577 40.0395 141.994 42.9938 138.746 46.2434C135.497 49.4931 132.544 53.0775 129.985 56.8786C129.729 57.2725 129.197 57.371 128.803 57.115C128.41 56.8589 128.311 56.3272 128.567 55.9333C131.205 52.0337 134.217 48.3705 137.545 45.0617C140.872 41.7333 144.534 38.72 148.412 36.0809C152.33 33.4221 156.543 31.1572 160.894 29.3059C165.324 27.4349 169.97 25.9971 174.695 25.0124C184.381 23.0232 194.619 23.0232 204.305 25.0124C209.03 25.9774 213.676 27.4152 218.106 29.3059C222.457 31.1572 226.67 33.4221 230.588 36.0809C234.486 38.72 238.148 41.7333 241.455 45.0617C244.782 48.3902 247.795 52.0534 250.433 55.9333C250.689 56.3272 250.59 56.8589 250.197 57.115C250.059 57.1937 249.901 57.2528 249.724 57.2528Z" fill="#E1B168"/>
<path d="M192.473 118.977C188.043 118.977 183.732 118.031 179.656 116.18C176.605 117.598 173.376 118.307 170.049 118.307C157.409 118.307 147.113 108.007 147.113 95.3625C147.113 84.6091 154.653 75.254 165.107 72.9694C170.58 62.8857 181.015 56.6621 192.473 56.6621C208.873 56.6621 222.398 69.3653 223.5 85.6923C228.678 88.9025 231.868 94.5944 231.868 100.68C231.868 110.409 223.953 118.327 214.228 118.327C211.215 118.327 208.243 117.539 205.585 116.042C201.45 117.992 197.021 118.977 192.473 118.977ZM179.656 114.013L180.089 114.21C188.102 117.972 197.296 117.913 205.23 114.033L205.703 113.797L206.156 114.073C208.617 115.55 211.412 116.337 214.247 116.337C222.89 116.337 229.918 109.306 229.918 100.66C229.918 95.0867 226.906 89.8873 222.063 87.0906L221.591 86.8149L221.571 86.2831C220.783 70.7636 208.006 58.5922 192.473 58.5922C181.586 58.5922 171.683 64.5991 166.623 74.2693L166.407 74.6829L165.954 74.7814C156.189 76.7311 149.082 85.3772 149.082 95.3428C149.082 106.904 158.492 116.318 170.049 116.318C173.238 116.318 176.309 115.589 179.223 114.191L179.656 114.013Z" fill="#E1B168"/>
<path d="M212.593 137.372H166.407V116.062L167.509 116.2C168.474 116.318 169.281 116.377 170.049 116.377C173.238 116.377 176.309 115.648 179.223 114.25L179.656 114.014L180.089 114.21C188.102 117.972 197.296 117.913 205.23 114.033L205.703 113.797L206.156 114.073C207.868 115.097 209.739 115.786 211.767 116.121L212.593 116.259V137.372ZM168.375 135.402H210.625V117.913C208.853 117.539 207.16 116.909 205.604 116.022C197.395 119.883 187.945 119.942 179.656 116.2C176.605 117.618 173.376 118.327 170.049 118.327C169.517 118.327 168.966 118.307 168.375 118.248V135.402Z" fill="#E1B168"/>
<path d="M169.911 88.6267C169.36 88.6267 168.927 88.1934 168.927 87.6419C168.927 74.8206 179.361 64.3823 192.178 64.3823C192.729 64.3823 193.162 64.8156 193.162 65.3671C193.162 65.9185 192.729 66.3518 192.178 66.3518C180.444 66.3518 170.895 75.9038 170.895 87.6419C170.895 88.1934 170.462 88.6267 169.911 88.6267Z" fill="#E1B168"/>
<path d="M377.516 70.4475H244.723C244.172 70.4475 243.739 70.0142 243.739 69.4628C243.739 68.9113 244.172 68.478 244.723 68.478H377.516C378.067 68.478 378.5 68.9113 378.5 69.4628C378.5 70.0142 378.067 70.4475 377.516 70.4475Z" fill="#E1B168"/>
<path d="M377.516 125.573H244.723C244.172 125.573 243.739 125.14 243.739 124.589C243.739 124.037 244.172 123.604 244.723 123.604H377.516C378.067 123.604 378.5 124.037 378.5 124.589C378.5 125.14 378.067 125.573 377.516 125.573Z" fill="#E1B168"/>
<path d="M134.277 70.4475H1.48438C0.933125 70.4475 0.5 70.0142 0.5 69.4628C0.5 68.9113 0.933125 68.478 1.48438 68.478H134.277C134.828 68.478 135.261 68.9113 135.261 69.4628C135.261 70.0142 134.808 70.4475 134.277 70.4475Z" fill="#E1B168"/>
<path d="M134.277 125.573H1.48438C0.933125 125.573 0.5 125.14 0.5 124.589C0.5 124.037 0.933125 123.604 1.48438 123.604H134.277C134.828 123.604 135.261 124.037 135.261 124.589C135.261 125.14 134.808 125.573 134.277 125.573Z" fill="#E1B168"/>
<path d="M75.6275 101.881H41.5681C38.8906 101.881 36.7053 99.695 36.7053 97.0165C36.7053 94.338 38.8906 92.1519 41.5681 92.1519H78.305C78.8563 92.1519 79.2894 92.5851 79.2894 93.1366C79.2894 93.6881 78.8563 94.1213 78.305 94.1213H41.5681C39.9734 94.1213 38.6741 95.4212 38.6741 97.0165C38.6741 98.6118 39.9734 99.9116 41.5681 99.9116H75.6078C76.1591 99.9116 76.5922 100.345 76.5922 100.896C76.5922 101.448 76.1591 101.881 75.6275 101.881Z" fill="#E1B168"/>
<path d="M19.9119 110.921C9.57592 110.921 1.14967 104.697 1.14967 97.0357C1.14967 89.3744 9.55624 83.1509 19.9119 83.1509C30.2478 83.1509 38.674 89.3744 38.674 97.0357C38.674 104.697 30.2675 110.921 19.9119 110.921ZM19.9119 85.1007C10.6587 85.1007 3.11842 90.4577 3.11842 97.016C3.11842 103.574 10.6587 108.931 19.9119 108.931C29.165 108.931 36.7053 103.574 36.7053 97.016C36.7053 90.4577 29.1847 85.1007 19.9119 85.1007Z" fill="#E1B168"/>
<path d="M335.247 101.881H301.207C300.656 101.881 300.222 101.448 300.222 100.896C300.222 100.345 300.656 99.9116 301.207 99.9116H335.247C336.841 99.9116 338.141 98.6118 338.141 97.0165C338.141 95.4212 336.841 94.1213 335.247 94.1213H298.51C297.958 94.1213 297.525 93.6881 297.525 93.1366C297.525 92.5851 297.958 92.1519 298.51 92.1519H335.247C337.924 92.1519 340.109 94.338 340.109 97.0165C340.109 99.695 337.924 101.881 335.247 101.881Z" fill="#E1B168"/>
<path d="M353.93 106.233H347.354C342.275 106.233 338.141 102.097 338.141 97.016C338.141 91.9347 342.275 87.7988 347.354 87.7988H353.93V106.233ZM347.354 89.788C343.358 89.788 340.109 93.0377 340.109 97.0357C340.109 101.034 343.358 104.283 347.354 104.283H351.961V89.8077H347.354V89.788Z" fill="#E1B168"/>
<path d="M374.681 89.7883H352.965C352.414 89.7883 351.981 89.355 351.981 88.8036C351.981 88.2521 352.414 87.8188 352.965 87.8188H374.681C375.232 87.8188 375.665 88.2521 375.665 88.8036C375.665 89.355 375.212 89.7883 374.681 89.7883Z" fill="#E1B168"/>
<path d="M374.681 98.0012H352.965C352.414 98.0012 351.981 97.5679 351.981 97.0165C351.981 96.465 352.414 96.0317 352.965 96.0317H374.681C375.232 96.0317 375.665 96.465 375.665 97.0165C375.665 97.5679 375.212 98.0012 374.681 98.0012Z" fill="#E1B168"/>
<path d="M374.681 106.234H352.965C352.414 106.234 351.981 105.8 351.981 105.249C351.981 104.697 352.414 104.264 352.965 104.264H374.681C375.232 104.264 375.665 104.697 375.665 105.249C375.665 105.8 375.212 106.234 374.681 106.234Z" fill="#E1B168"/>
<path d="M128.961 110.921H111.754C111.203 110.921 110.77 110.488 110.77 109.936C110.77 109.385 111.203 108.952 111.754 108.952H128.961C129.512 108.952 129.945 109.385 129.945 109.936C129.945 110.488 129.512 110.921 128.961 110.921Z" fill="#E1B168"/>
<path d="M128.114 96.2488H95.4528C94.9015 96.2488 94.4684 95.8155 94.4684 95.264C94.4684 94.7126 94.9015 94.2793 95.4528 94.2793H128.114C128.666 94.2793 129.099 94.7126 129.099 95.264C129.099 95.8155 128.666 96.2488 128.114 96.2488Z" fill="#E1B168"/>
<path d="M130.28 81.5759H113.073C112.522 81.5759 112.089 81.1426 112.089 80.5912C112.089 80.0397 112.522 79.6064 113.073 79.6064H130.28C130.831 79.6064 131.264 80.0397 131.264 80.5912C131.264 81.1426 130.831 81.5759 130.28 81.5759Z" fill="#E1B168"/>
<path d="M128.941 103.575H103.387C102.836 103.575 102.402 103.142 102.402 102.59C102.402 102.039 102.836 101.605 103.387 101.605H128.941C129.492 101.605 129.926 102.039 129.926 102.59C129.926 103.142 129.473 103.575 128.941 103.575Z" fill="#E1B168"/>
<path d="M128.803 88.8044H103.249C102.698 88.8044 102.265 88.3712 102.265 87.8197C102.265 87.2682 102.698 86.835 103.249 86.835H128.803C129.355 86.835 129.788 87.2682 129.788 87.8197C129.788 88.3712 129.355 88.8044 128.803 88.8044Z" fill="#E1B168"/>
<path d="M267.226 83.3289H250.019C249.468 83.3289 249.035 82.8956 249.035 82.3441C249.035 81.7927 249.468 81.3594 250.019 81.3594H267.226C267.777 81.3594 268.211 81.7927 268.211 82.3441C268.211 82.8956 267.777 83.3289 267.226 83.3289Z" fill="#E1B168"/>
<path d="M283.547 98.0012H250.886C250.334 98.0012 249.901 97.5679 249.901 97.0165C249.901 96.465 250.334 96.0317 250.886 96.0317H283.547C284.098 96.0317 284.532 96.465 284.532 97.0165C284.532 97.5679 284.098 98.0012 283.547 98.0012Z" fill="#E1B168"/>
<path d="M265.907 112.674H248.7C248.149 112.674 247.716 112.241 247.716 111.689C247.716 111.138 248.149 110.705 248.7 110.705H265.907C266.458 110.705 266.892 111.138 266.892 111.689C266.892 112.241 266.458 112.674 265.907 112.674Z" fill="#E1B168"/>
<path d="M275.613 90.6751H250.059C249.507 90.6751 249.074 90.2418 249.074 89.6903C249.074 89.1389 249.507 88.7056 250.059 88.7056H275.613C276.164 88.7056 276.597 89.1389 276.597 89.6903C276.597 90.2418 276.164 90.6751 275.613 90.6751Z" fill="#E1B168"/>
<path d="M275.751 105.446H250.197C249.645 105.446 249.212 105.012 249.212 104.461C249.212 103.909 249.645 103.476 250.197 103.476H275.751C276.302 103.476 276.735 103.909 276.735 104.461C276.735 105.012 276.282 105.446 275.751 105.446Z" fill="#E1B168"/>
<path d="M124.551 146.136L114.727 148.657L113.172 146.195L117.148 141.488L111.144 142.985L109.588 140.523L116.066 132.724L117.562 135.107L113.388 140.05L119.688 138.475L121.027 140.602L116.814 145.565L123.153 143.95L124.551 146.136Z" fill="#E1B168"/>
<path d="M127.209 159.922L125.673 161.36L120.357 155.727L127.386 149.11L132.583 154.624L131.048 156.062L127.721 152.517L126.5 153.64L129.433 156.751L127.957 158.15L125.023 155.038L123.744 156.239L127.209 159.922Z" fill="#E1B168"/>
<path d="M136.206 157.894L138.352 159.587L133.706 165.456L137.308 168.312L135.97 170.006L130.221 165.456L136.206 157.894Z" fill="#E1B168"/>
<path d="M142.703 173.807C142.211 173.039 141.955 172.212 141.935 171.325C141.915 170.439 142.132 169.573 142.624 168.726C143.097 167.879 143.727 167.249 144.494 166.815C145.262 166.382 146.109 166.165 147.034 166.205C147.94 166.224 148.845 166.5 149.712 166.993C150.479 167.426 151.09 167.958 151.562 168.588C152.035 169.218 152.31 169.888 152.428 170.636L150.125 171.128C149.948 170.163 149.475 169.454 148.707 169.021C148.255 168.765 147.782 168.627 147.329 168.627C146.857 168.627 146.424 168.745 146.03 169.001C145.636 169.257 145.302 169.612 145.026 170.085C144.75 170.557 144.612 171.03 144.612 171.503C144.612 171.975 144.711 172.409 144.967 172.822C145.203 173.216 145.557 173.551 146.01 173.807C146.778 174.24 147.625 174.299 148.55 173.945L149.278 176.17C148.589 176.446 147.841 176.545 147.073 176.466C146.306 176.387 145.538 176.131 144.77 175.698C143.864 175.205 143.175 174.575 142.703 173.807Z" fill="#E1B168"/>
<path d="M155.933 180.346C155.322 179.656 154.909 178.888 154.732 178.002C154.555 177.135 154.633 176.249 154.948 175.343C155.263 174.437 155.775 173.708 156.484 173.157C157.173 172.605 157.98 172.251 158.886 172.113C159.792 171.975 160.737 172.093 161.701 172.428C162.666 172.763 163.453 173.295 164.064 173.964C164.674 174.654 165.087 175.422 165.265 176.308C165.442 177.194 165.363 178.061 165.048 178.967C164.733 179.873 164.221 180.602 163.512 181.153C162.823 181.724 162.016 182.059 161.111 182.197C160.205 182.335 159.26 182.217 158.315 181.882C157.331 181.527 156.543 181.015 155.933 180.346ZM160.422 179.873C160.874 179.794 161.268 179.597 161.642 179.282C161.997 178.967 162.272 178.553 162.449 178.041C162.627 177.529 162.686 177.037 162.607 176.564C162.528 176.091 162.351 175.678 162.056 175.343C161.76 175.008 161.386 174.733 160.933 174.575C160.481 174.417 160.028 174.378 159.575 174.457C159.122 174.536 158.728 174.733 158.354 175.048C157.98 175.363 157.724 175.776 157.547 176.288C157.37 176.8 157.311 177.293 157.39 177.766C157.468 178.238 157.646 178.652 157.941 179.006C158.236 179.361 158.61 179.617 159.063 179.774C159.516 179.932 159.969 179.952 160.422 179.873Z" fill="#E1B168"/>
<path d="M178.199 186.431L178.947 181.37L175.857 185.112L174.656 184.935L172.825 180.582L172.057 185.506L169.557 185.112L171.033 175.58L173.258 175.914L175.758 181.941L179.873 176.939L182.097 177.273L180.66 186.806L178.199 186.431Z" fill="#E1B168"/>
<path d="M195.111 184.817L195.15 186.924L187.413 187.081L187.216 177.431L194.776 177.273L194.816 179.381L189.953 179.479L189.992 181.114L194.284 181.015L194.323 183.064L190.032 183.162L190.071 184.935L195.111 184.817Z" fill="#E1B168"/>
<path d="M209.581 177.037L206.727 177.806L206.156 175.718L214.503 173.473L215.074 175.56L212.219 176.328L214.168 183.556L211.53 184.265L209.581 177.037Z" fill="#E1B168"/>
<path d="M224.091 179.617C223.166 179.558 222.339 179.282 221.61 178.77C220.862 178.278 220.311 177.589 219.917 176.722C219.523 175.855 219.386 174.969 219.484 174.083C219.583 173.197 219.917 172.389 220.488 171.66C221.059 170.932 221.787 170.361 222.713 169.927C223.638 169.494 224.563 169.317 225.489 169.376C226.414 169.435 227.241 169.711 227.969 170.223C228.717 170.735 229.269 171.404 229.662 172.291C230.056 173.177 230.194 174.043 230.096 174.93C229.997 175.816 229.662 176.623 229.092 177.352C228.521 178.081 227.792 178.652 226.847 179.085C225.942 179.499 225.016 179.676 224.091 179.617ZM226.985 176.151C227.241 175.777 227.398 175.363 227.438 174.871C227.477 174.398 227.379 173.906 227.162 173.413C226.946 172.921 226.631 172.527 226.257 172.251C225.882 171.975 225.449 171.798 224.997 171.759C224.544 171.719 224.091 171.798 223.658 171.995C223.205 172.192 222.851 172.488 222.595 172.862C222.339 173.236 222.181 173.65 222.142 174.142C222.102 174.634 222.201 175.107 222.417 175.599C222.634 176.092 222.949 176.486 223.323 176.761C223.697 177.037 224.13 177.214 224.583 177.254C225.036 177.293 225.489 177.214 225.922 177.017C226.375 176.82 226.729 176.525 226.985 176.151Z" fill="#E1B168"/>
<path d="M245.314 167.091C244.408 167.288 243.542 167.229 242.696 166.953C241.849 166.677 241.121 166.165 240.51 165.437C239.9 164.708 239.526 163.9 239.388 163.014C239.25 162.128 239.349 161.261 239.703 160.414C240.038 159.567 240.609 158.799 241.396 158.149C242.184 157.499 243.011 157.066 243.916 156.869C244.822 156.672 245.688 156.712 246.535 157.007C247.381 157.303 248.11 157.795 248.72 158.524C249.33 159.252 249.704 160.06 249.842 160.946C249.98 161.832 249.882 162.699 249.527 163.546C249.192 164.393 248.622 165.161 247.834 165.811C247.066 166.48 246.22 166.894 245.314 167.091ZM247.165 162.975C247.322 162.541 247.342 162.088 247.263 161.635C247.165 161.163 246.948 160.729 246.594 160.316C246.239 159.902 245.846 159.607 245.412 159.43C244.979 159.252 244.527 159.213 244.074 159.292C243.621 159.37 243.207 159.567 242.833 159.883C242.459 160.198 242.203 160.572 242.046 161.005C241.888 161.438 241.869 161.891 241.947 162.344C242.046 162.817 242.262 163.25 242.617 163.664C242.971 164.078 243.365 164.373 243.798 164.55C244.251 164.727 244.684 164.767 245.137 164.688C245.59 164.609 246.003 164.412 246.377 164.097C246.751 163.782 247.027 163.408 247.165 162.975Z" fill="#E1B168"/>
<path d="M256.182 156.2C255.079 156.318 253.977 155.904 252.874 154.979L248.779 151.552L250.531 149.464L254.567 152.832C255.748 153.817 256.733 153.836 257.52 152.911C258.288 151.985 258.091 151.02 256.91 150.035L252.874 146.668L254.607 144.6L258.702 148.027C259.804 148.952 260.395 149.957 260.493 151.079C260.592 152.202 260.178 153.305 259.253 154.388C258.288 155.491 257.284 156.082 256.182 156.2Z" fill="#E1B168"/>
<path d="M265.651 140.405L264.903 141.685L267.108 142.985L265.73 145.348L257.402 140.484L259.627 136.663C260.06 135.914 260.572 135.323 261.143 134.91C261.714 134.496 262.324 134.28 262.974 134.24C263.604 134.201 264.253 134.378 264.864 134.733C265.474 135.087 265.907 135.54 266.202 136.072C266.478 136.623 266.596 137.214 266.557 137.903L270.219 137.667L268.742 140.188L265.651 140.405ZM262.363 136.998C262.009 137.116 261.694 137.431 261.399 137.903L260.631 139.223L263.072 140.641L263.84 139.322C264.116 138.829 264.234 138.416 264.155 138.041C264.096 137.667 263.86 137.372 263.466 137.155C263.072 136.938 262.718 136.879 262.363 136.998Z" fill="#E1B168"/>
<path d="M110.455 43.8599C110.573 44.8249 111.045 45.8687 111.912 46.9717C111.951 46.9913 111.931 47.0504 111.872 47.1292C111.813 47.208 111.754 47.2277 111.715 47.208C111.203 46.7353 110.533 46.1445 109.707 45.3961C108.88 44.6674 108.25 44.1356 107.817 43.8008C107.738 43.7417 107.738 43.6826 107.797 43.6038C107.856 43.5251 107.915 43.5054 107.994 43.5644C108.309 43.8008 108.762 43.5251 109.352 42.7176C110.317 41.5162 111.4 40.1178 112.64 38.4635C113.27 37.6166 113.92 36.7303 114.589 35.7653L115.652 34.2882C116.066 33.7564 116.322 33.3231 116.44 33.0277C116.558 32.7323 116.538 32.4566 116.381 32.2202C116.341 32.1611 116.341 32.1021 116.381 32.0233C116.44 31.9445 116.499 31.9445 116.538 31.9839C116.952 32.3581 117.582 32.9095 118.448 33.6186C119.314 34.3276 120.023 34.8987 120.574 35.3123C120.613 35.3517 120.613 35.3911 120.554 35.4699C120.495 35.5486 120.436 35.588 120.397 35.5683C119.196 34.8987 118.133 34.623 117.227 34.7609C116.322 34.8987 115.514 35.4108 114.845 36.3167C114.55 36.7106 114.353 37.0455 114.294 37.2818C114.215 37.5181 114.254 37.7545 114.373 37.9514C114.51 38.1484 114.766 38.3847 115.14 38.6801L124.984 46.0657C125.417 46.4005 125.772 46.5974 126.047 46.6565C126.303 46.7156 126.579 46.6565 126.835 46.4399C127.091 46.2429 127.445 45.849 127.858 45.2976C127.898 45.2582 127.957 45.2582 128.036 45.337C128.114 45.3961 128.154 45.4551 128.114 45.4945C127.74 45.9869 127.445 46.3808 127.209 46.6565L125.87 48.3897L124.649 50.0637C124.433 50.3789 124.138 50.7924 123.744 51.3242C123.724 51.3439 123.665 51.3439 123.586 51.2651C123.508 51.1863 123.468 51.147 123.488 51.1273C123.901 50.5758 124.177 50.1425 124.295 49.8077C124.413 49.4926 124.413 49.2169 124.275 48.9608C124.138 48.7048 123.862 48.4291 123.429 48.114L113.546 40.7087C113.172 40.433 112.876 40.2557 112.66 40.2163C112.443 40.1572 112.227 40.1966 112.01 40.3345C111.793 40.4724 111.557 40.7284 111.262 41.1026C110.612 41.9889 110.356 42.8948 110.455 43.8599Z" fill="#E1B168"/>
<path d="M145.124 29.3849C145.183 29.4637 145.203 29.5228 145.164 29.5622C144.711 29.9561 144.317 30.2712 144.022 30.4879L142.526 31.7286L140.813 33.2057C140.577 33.4224 140.262 33.7178 139.848 34.0526C139.809 34.092 139.75 34.0723 139.691 33.9738C139.632 33.8951 139.612 33.836 139.651 33.7966C140.163 33.3633 140.518 33.0088 140.695 32.7528C140.872 32.4967 140.911 32.221 140.833 31.965C140.754 31.7089 140.537 31.3741 140.183 30.9408L136.206 26.2338L129.217 32.1422L133.194 36.8493C133.528 37.2629 133.843 37.5189 134.08 37.6568C134.316 37.7749 134.592 37.7749 134.887 37.6568C135.182 37.5189 135.596 37.2432 136.108 36.8099C136.127 36.7902 136.186 36.8099 136.245 36.8887C136.324 36.9675 136.344 37.0265 136.304 37.0462C135.852 37.4401 135.478 37.7356 135.202 37.9325L133.489 39.3505L132.013 40.6307C131.776 40.867 131.402 41.1821 130.949 41.5564C130.93 41.576 130.871 41.5563 130.812 41.4776C130.753 41.3988 130.733 41.3397 130.753 41.32C131.245 40.9064 131.579 40.5716 131.737 40.2959C131.914 40.0398 131.953 39.7641 131.875 39.5081C131.796 39.2324 131.579 38.8975 131.225 38.5036L123.252 29.0698C122.897 28.6562 122.602 28.4002 122.366 28.282C122.129 28.1639 121.854 28.1639 121.558 28.282C121.263 28.4002 120.889 28.6562 120.397 29.0698C120.377 29.0895 120.318 29.0698 120.259 28.991C120.18 28.9123 120.161 28.8532 120.2 28.8335L121.303 27.9472C121.952 27.4548 122.444 27.0413 122.799 26.7458C123.271 26.3519 123.823 25.8596 124.453 25.2687L125.516 24.3431C125.535 24.3234 125.594 24.3431 125.653 24.4218C125.713 24.5006 125.732 24.5597 125.713 24.5794C125.201 25.0127 124.866 25.3672 124.708 25.6429C124.531 25.9187 124.492 26.1944 124.571 26.4701C124.649 26.7458 124.866 27.0806 125.201 27.4942L128.725 31.6498L135.714 25.7414L132.19 21.5858C131.855 21.1722 131.54 20.9162 131.304 20.7783C131.048 20.6601 130.772 20.6404 130.477 20.7586C130.182 20.8768 129.768 21.1525 129.256 21.5858C129.217 21.6252 129.158 21.6055 129.099 21.507C129.02 21.4282 129.02 21.3691 129.059 21.3298L130.044 20.5223C130.713 19.9905 131.304 19.5178 131.816 19.1042C132.19 18.7891 132.662 18.3558 133.273 17.8044L134.375 16.8393C134.414 16.7999 134.473 16.8196 134.533 16.9181C134.611 16.9969 134.611 17.056 134.572 17.0954C134.08 17.509 133.765 17.8438 133.588 18.1195C133.43 18.3755 133.391 18.6513 133.469 18.9073C133.548 19.1633 133.765 19.4981 134.099 19.9117L142.073 29.3456C142.408 29.7591 142.723 30.0152 142.959 30.153C143.215 30.2909 143.471 30.2909 143.746 30.153C144.022 30.0349 144.416 29.7591 144.908 29.3456C145.006 29.2865 145.065 29.3062 145.124 29.3849Z" fill="#E1B168"/>
<path d="M154.909 19.7933C154.948 19.7736 155.008 19.7539 155.067 19.7539C155.126 19.7539 155.145 19.7736 155.165 19.7736C155.657 21.0537 156.149 22.1763 156.681 23.1808C156.74 23.2989 156.779 23.4171 156.76 23.4959C156.74 23.5747 156.661 23.6535 156.523 23.7322L146.306 29.2074C146.266 29.2271 146.207 29.2074 146.168 29.1089C146.109 29.0104 146.109 28.9514 146.168 28.9317C146.699 28.6362 147.073 28.3999 147.27 28.1833C147.467 27.9666 147.546 27.7303 147.526 27.4546C147.507 27.1788 147.349 26.8046 147.093 26.3319L141.266 15.4407C141.01 14.968 140.793 14.6529 140.577 14.4757C140.38 14.2984 140.124 14.2393 139.828 14.2787C139.533 14.3378 139.12 14.4954 138.608 14.7711C138.568 14.7908 138.509 14.7711 138.47 14.6726C138.411 14.5741 138.411 14.515 138.47 14.4954L148.255 9.25653C148.412 9.17775 148.53 9.19744 148.609 9.33531L150.302 12.3683C150.322 12.4077 150.283 12.4471 150.204 12.5062C150.125 12.5653 150.066 12.585 150.027 12.5456C148.688 10.9503 147.133 10.6549 145.321 11.6199L144.376 12.132C143.805 12.4274 143.471 12.7425 143.333 13.0773C143.215 13.4121 143.274 13.8257 143.53 14.2984L146.109 19.1039L148.373 17.8829C150.105 16.9572 150.657 15.9134 150.027 14.7514C150.007 14.712 150.027 14.6529 150.125 14.6135C150.223 14.5741 150.263 14.5741 150.283 14.6135L151.365 16.6815L151.976 17.7844C152.271 18.2768 152.507 18.6707 152.684 18.9858C152.704 19.0252 152.665 19.0646 152.566 19.1039C152.468 19.163 152.409 19.163 152.409 19.1433C151.68 17.7844 150.44 17.5874 148.688 18.5328L146.384 19.6948L149.239 25.0321C149.515 25.5442 149.81 25.8593 150.105 25.9577C150.42 26.0562 150.814 25.9774 151.306 25.7017L152.468 25.0912C154.574 23.9686 155.362 22.2354 154.83 19.8917C154.811 19.8523 154.85 19.8327 154.909 19.7933Z" fill="#E1B168"/>
<path d="M162.41 5.45524C161.878 6.26273 161.583 7.36564 161.524 8.76397C161.524 8.80336 161.485 8.82305 161.386 8.84275C161.288 8.86244 161.229 8.84275 161.229 8.80336C161.15 8.11404 161.012 7.22777 160.855 6.14456C160.697 5.06134 160.559 4.25385 160.422 3.7024C160.402 3.62362 160.441 3.56453 160.54 3.54484C160.638 3.52514 160.697 3.54484 160.717 3.64331C160.815 4.01752 161.327 4.09629 162.312 3.87965C163.808 3.58423 165.56 3.21003 167.548 2.73735C168.572 2.50101 169.655 2.22529 170.797 1.92986L172.549 1.49658C173.218 1.33902 173.691 1.18146 173.967 1.0239C174.242 0.866342 174.4 0.649699 174.439 0.373971C174.439 0.295192 174.478 0.255802 174.577 0.236107C174.656 0.216413 174.715 0.236107 174.734 0.314887C174.813 0.866342 174.951 1.69353 175.148 2.79644C175.345 3.89935 175.522 4.78561 175.679 5.47493C175.699 5.53402 175.66 5.57341 175.561 5.5931C175.463 5.6128 175.404 5.5931 175.364 5.55371C174.872 4.25385 174.242 3.36759 173.455 2.89491C172.667 2.40254 171.722 2.30406 170.639 2.5404C170.147 2.65857 169.813 2.77674 169.596 2.9146C169.379 3.05247 169.261 3.24942 169.242 3.48575C169.222 3.72209 169.261 4.0766 169.36 4.54928L172.136 16.5434C172.254 17.0752 172.411 17.4494 172.569 17.6857C172.726 17.9024 172.982 18.0205 173.297 18.0402C173.632 18.0599 174.144 17.9812 174.813 17.8236C174.872 17.8039 174.892 17.863 174.931 17.9615C174.951 18.0599 174.931 18.119 174.892 18.1387C174.282 18.2766 173.809 18.375 173.455 18.4538L171.309 18.9265L169.281 19.4189C168.927 19.5173 168.415 19.6552 167.785 19.7931C167.745 19.7931 167.726 19.7537 167.706 19.6552C167.686 19.5567 167.686 19.4977 167.726 19.4977C168.395 19.3401 168.887 19.1825 169.183 19.025C169.478 18.8674 169.655 18.6508 169.714 18.375C169.773 18.0993 169.734 17.7054 169.616 17.1737L166.82 5.14012C166.722 4.68714 166.603 4.37202 166.466 4.17507C166.328 3.97813 166.131 3.87965 165.895 3.84026C165.658 3.80087 165.284 3.84026 164.832 3.95843C163.749 4.11599 162.961 4.64775 162.41 5.45524Z" fill="#E1B168"/>
<path d="M196.076 16.4255C196.076 16.524 196.036 16.583 195.938 16.583C195.603 16.6027 195.052 16.6027 194.304 16.583C193.556 16.5634 193.004 16.583 192.67 16.583C192.217 16.6027 191.705 16.6421 191.095 16.6815C190.484 16.7406 190.032 16.78 189.677 16.78C189.598 16.78 189.559 16.7209 189.559 16.6224C189.559 16.524 189.598 16.4649 189.658 16.4649C190.169 16.4452 190.543 16.3664 190.78 16.2482C191.016 16.1301 191.134 15.9331 191.114 15.6574C191.095 15.3817 190.937 14.9484 190.622 14.3181L187.531 8.56725L182.708 8.72481L180.818 13.4122C180.601 13.9439 180.503 14.4363 180.523 14.8696C180.542 15.4998 180.778 15.9528 181.231 16.2679C181.684 16.5634 182.314 16.7209 183.121 16.6815C183.2 16.6815 183.259 16.7209 183.259 16.8391C183.259 16.9376 183.22 16.9966 183.141 16.9966C182.826 17.0163 182.353 17.0163 181.743 16.9966C181.074 16.9769 180.483 16.9966 179.971 16.9966C179.499 17.0163 178.928 17.0557 178.298 17.1148C177.727 17.1739 177.254 17.2133 176.88 17.2133C176.802 17.2133 176.743 17.1739 176.743 17.0557C176.743 16.9573 176.782 16.8982 176.88 16.8982C177.373 16.8785 177.786 16.7603 178.121 16.5634C178.455 16.3467 178.77 15.9922 179.066 15.4801C179.381 14.9681 179.715 14.2 180.129 13.1758L185.405 0.0590845C185.484 0.0393897 185.563 0 185.7 0C185.818 0 185.897 0.0196948 185.917 0.0787793L192.906 13.038C193.575 14.2984 194.127 15.165 194.56 15.618C194.993 16.071 195.446 16.2876 195.938 16.2679C196.017 16.2679 196.056 16.3073 196.076 16.4255ZM183.003 8.07488L187.216 7.93702L184.854 3.52537L183.003 8.07488Z" fill="#E1B168"/>
<path d="M201.883 5.63274C202.12 6.18419 202.454 6.67656 202.888 7.12954C203.301 7.58252 203.892 8.11428 204.64 8.76421C205.447 9.47323 206.077 10.0641 206.53 10.5564C206.983 11.0488 207.337 11.62 207.613 12.2699C207.868 12.9198 207.947 13.6288 207.809 14.4166C207.672 15.3226 207.298 16.071 206.727 16.7012C206.156 17.3315 205.408 17.7648 204.482 18.0208C203.557 18.2768 202.553 18.3162 201.47 18.139C200.722 18.0208 199.993 17.8041 199.245 17.489C198.497 17.1739 197.946 16.8391 197.572 16.4846C197.434 16.3467 197.375 16.1695 197.395 15.9331L197.887 11.8957V11.876C197.907 11.7972 197.946 11.7775 198.044 11.7775C198.123 11.7775 198.182 11.8169 198.182 11.8957C198.517 13.4516 198.989 14.7514 199.6 15.7953C200.19 16.8391 201.076 17.4693 202.238 17.6466C202.986 17.7648 203.655 17.6663 204.226 17.3315C204.797 16.9967 205.171 16.3467 205.329 15.3817C205.447 14.6136 205.388 13.9046 205.152 13.2743C204.915 12.6441 204.561 12.0926 204.128 11.62C203.695 11.1473 203.084 10.5761 202.317 9.86713C201.568 9.17781 200.978 8.62635 200.564 8.15367C200.151 7.681 199.816 7.16893 199.58 6.55839C199.344 5.94785 199.265 5.27823 199.383 4.52983C199.541 3.62386 199.915 2.89515 200.525 2.3437C201.135 1.79224 201.883 1.43774 202.75 1.26048C203.616 1.08323 204.502 1.06353 205.388 1.22109C205.978 1.31957 206.569 1.47713 207.14 1.67407C207.711 1.89072 208.203 2.10736 208.577 2.3437C208.735 2.42248 208.813 2.50126 208.853 2.59973C208.892 2.67851 208.912 2.79668 208.892 2.91485L208.4 6.519C208.4 6.57809 208.341 6.59778 208.243 6.61748C208.144 6.63717 208.085 6.59778 208.085 6.519C207.908 5.3964 207.593 4.35257 207.14 3.38753C206.687 2.42248 205.88 1.85133 204.699 1.65438C203.911 1.53621 203.242 1.65438 202.71 2.02858C202.179 2.40278 201.844 2.99363 201.706 3.78142C201.568 4.47074 201.647 5.06159 201.883 5.63274Z" fill="#E1B168"/>
<path d="M215.665 5.37656C214.779 5.77046 213.932 6.53856 213.125 7.68086C213.105 7.72025 213.066 7.72025 212.968 7.68086C212.869 7.64147 212.849 7.60208 212.849 7.56269C213.145 6.93246 213.519 6.12497 213.991 5.12053C214.464 4.1161 214.759 3.36769 214.956 2.83593C214.995 2.75715 215.054 2.71776 215.133 2.75715C215.232 2.79654 215.251 2.85563 215.232 2.93441C215.094 3.30861 215.507 3.66311 216.433 3.99793C217.85 4.56908 219.523 5.19931 221.453 5.88863C222.437 6.24314 223.5 6.59764 224.603 6.97185L226.316 7.56269C226.946 7.79903 227.438 7.9172 227.753 7.93689C228.068 7.95659 228.324 7.85811 228.501 7.64147C228.54 7.58239 228.599 7.56269 228.678 7.60208C228.757 7.64147 228.796 7.68086 228.777 7.73994C228.54 8.23232 228.206 9.02011 227.773 10.0442C227.339 11.0881 227.005 11.9349 226.768 12.5849C226.749 12.644 226.69 12.644 226.611 12.6046C226.513 12.5652 226.473 12.5258 226.473 12.4667C226.768 11.1078 226.709 10.0245 226.316 9.19736C225.922 8.37018 225.193 7.75964 224.13 7.38544C223.658 7.20818 223.303 7.1294 223.048 7.1294C222.792 7.1294 222.595 7.22788 222.437 7.40513C222.28 7.58239 222.122 7.8975 221.965 8.35048L217.791 19.931C217.614 20.4431 217.515 20.837 217.535 21.1127C217.555 21.3885 217.693 21.6051 217.968 21.8021C218.244 21.999 218.697 22.2156 219.366 22.452C219.425 22.4717 219.425 22.5308 219.386 22.6292C219.346 22.7277 219.307 22.7671 219.248 22.7474C218.657 22.5308 218.204 22.3535 217.87 22.2156L215.822 21.4475L213.853 20.7582C213.499 20.6401 213.007 20.4825 212.377 20.2659C212.338 20.2462 212.338 20.1871 212.377 20.0886C212.416 19.9901 212.456 19.9507 212.475 19.9507C213.125 20.1871 213.617 20.3249 213.972 20.3446C214.306 20.3643 214.582 20.2856 214.779 20.0886C214.976 19.8917 215.173 19.5371 215.35 19.0251L219.543 7.38544C219.701 6.95215 219.779 6.61734 219.76 6.381C219.74 6.14466 219.642 5.94772 219.464 5.79016C219.268 5.6326 218.953 5.47504 218.5 5.29779C217.515 4.98267 216.551 4.98267 215.665 5.37656Z" fill="#E1B168"/>
<path d="M236.553 27.2182C236.593 27.2379 236.632 27.2773 236.652 27.3364C236.671 27.3954 236.691 27.4151 236.671 27.4348C235.825 28.518 235.116 29.5225 234.545 30.4875C234.466 30.6057 234.407 30.6845 234.328 30.7042C234.25 30.7239 234.151 30.7042 234.013 30.6254L224.032 24.7366C223.993 24.7169 223.993 24.6579 224.052 24.5594C224.111 24.4609 224.15 24.4412 224.209 24.4609C224.721 24.776 225.134 24.9533 225.41 25.0124C225.686 25.0714 225.942 25.0124 226.158 24.8548C226.375 24.6775 226.611 24.3624 226.887 23.9094L233.167 13.2545C233.443 12.8016 233.6 12.4274 233.639 12.1713C233.679 11.9153 233.6 11.6593 233.403 11.4229C233.206 11.1866 232.852 10.9306 232.36 10.6351C232.32 10.6154 232.32 10.5563 232.379 10.4579C232.438 10.3594 232.478 10.3397 232.537 10.3594L242.105 16.0118C242.263 16.1103 242.302 16.2088 242.203 16.3466L240.491 19.3599C240.471 19.3993 240.412 19.3796 240.333 19.3599C240.235 19.3206 240.195 19.2812 240.215 19.2221C240.884 17.2526 240.333 15.7558 238.561 14.712L237.636 14.1802C237.085 13.8454 236.632 13.7272 236.297 13.7863C235.943 13.8454 235.628 14.1211 235.352 14.5938L232.576 19.2812L234.781 20.581C236.474 21.5855 237.656 21.5067 238.305 20.3644C238.325 20.325 238.384 20.325 238.483 20.3644C238.561 20.4235 238.601 20.4629 238.561 20.5022L237.36 22.4914L236.75 23.5943C236.494 24.1064 236.278 24.52 236.1 24.8154C236.081 24.8548 236.022 24.8351 235.943 24.776C235.844 24.7169 235.805 24.6775 235.825 24.6579C236.593 23.3383 236.14 22.1763 234.427 21.1522L232.242 19.872L229.17 25.0911C228.875 25.6032 228.757 25.9971 228.836 26.3122C228.914 26.6273 229.19 26.9228 229.682 27.2182L230.804 27.8878C232.852 29.1089 234.742 28.8725 236.474 27.1985C236.455 27.1788 236.494 27.1985 236.553 27.2182Z" fill="#E1B168"/>
<path d="M249.468 43.6634C249.389 43.7422 249.33 43.7422 249.252 43.6831C248.996 43.4467 248.602 43.0725 248.07 42.5605C247.539 42.0287 247.145 41.6545 246.889 41.4182C246.554 41.1227 246.161 40.7879 245.688 40.394C245.216 40.0198 244.861 39.7047 244.605 39.4881C244.546 39.4487 244.566 39.3699 244.625 39.2911C244.704 39.2123 244.763 39.1926 244.822 39.2517C245.196 39.6062 245.531 39.8032 245.787 39.882C246.043 39.9607 246.259 39.9017 246.436 39.7047C246.613 39.5078 246.81 39.0745 247.007 38.3852L248.779 32.1025L245.196 28.8529L240.569 30.9011C240.038 31.1375 239.624 31.4132 239.349 31.748C238.935 32.201 238.778 32.713 238.896 33.2448C239.014 33.7766 239.368 34.3083 239.959 34.8598C240.018 34.9189 240.018 34.9976 239.959 35.0764C239.88 35.1552 239.821 35.1552 239.762 35.0961C239.526 34.8795 239.191 34.5644 238.758 34.1311C238.286 33.6584 237.853 33.2448 237.498 32.91C237.144 32.5949 236.711 32.2207 236.218 31.8268C235.766 31.4723 235.411 31.1768 235.136 30.9208C235.077 30.8617 235.077 30.7829 235.136 30.7042C235.214 30.6254 235.273 30.6057 235.333 30.6648C235.707 30.9996 236.081 31.2162 236.455 31.295C236.829 31.3738 237.321 31.3344 237.892 31.1768C238.463 31.0193 239.25 30.7042 240.254 30.2709L253.169 24.5397C253.228 24.52 253.307 24.5594 253.406 24.6382C253.504 24.7169 253.524 24.7957 253.504 24.8351L249.508 39.0154C249.114 40.394 248.917 41.3788 248.897 42.009C248.897 42.6392 249.055 43.1119 249.429 43.4467C249.527 43.5058 249.527 43.5846 249.468 43.6634ZM245.885 28.5771L249.015 31.4132L250.374 26.6076L245.885 28.5771Z" fill="#E1B168"/>
<path d="M261.261 35.0963C260.296 34.9387 259.174 35.0963 257.875 35.6084C257.855 35.6281 257.796 35.6084 257.737 35.5296C257.678 35.4508 257.678 35.3917 257.717 35.372C258.308 35.0175 259.076 34.5449 260.021 33.954C260.946 33.3632 261.635 32.9102 262.068 32.5754C262.147 32.5163 262.206 32.536 262.265 32.6148C262.324 32.6935 262.324 32.7526 262.245 32.8117C261.93 33.048 262.068 33.5601 262.659 34.3676C263.525 35.6281 264.588 37.0855 265.809 38.7202C266.439 39.567 267.108 40.4533 267.856 41.3593L268.959 42.797C269.372 43.3484 269.687 43.703 269.943 43.8999C270.199 44.0968 270.455 44.1559 270.731 44.0575C270.79 44.0378 270.868 44.0575 270.908 44.1165C270.967 44.1953 270.947 44.2347 270.908 44.2938C270.435 44.5892 269.727 45.0422 268.801 45.6724C267.876 46.3027 267.128 46.8147 266.577 47.2283C266.537 47.2677 266.478 47.2283 266.419 47.1495C266.36 47.0708 266.34 47.0117 266.38 46.9723C267.364 46.0072 267.935 45.0619 268.053 44.1559C268.171 43.25 267.915 42.3243 267.226 41.438C266.931 41.0441 266.675 40.7684 266.458 40.6306C266.242 40.4927 266.025 40.4533 265.789 40.5321C265.553 40.6109 265.258 40.7684 264.864 41.0638L255 48.4297C254.567 48.7645 254.272 49.0402 254.134 49.2766C253.996 49.5129 253.996 49.7887 254.114 50.1038C254.233 50.4189 254.508 50.8522 254.922 51.4036C254.961 51.443 254.922 51.5021 254.843 51.5612C254.764 51.6203 254.705 51.64 254.666 51.6006C254.292 51.1082 254.016 50.6946 253.799 50.3992L252.52 48.6267L251.26 46.9723C251.023 46.6769 250.708 46.283 250.315 45.7512C250.295 45.7315 250.334 45.6724 250.413 45.6133C250.492 45.5543 250.551 45.5346 250.571 45.5543C250.984 46.1057 251.319 46.4996 251.594 46.6966C251.87 46.9132 252.126 46.992 252.402 46.9132C252.677 46.8541 253.032 46.6572 253.465 46.3421L263.368 38.9565C263.742 38.6808 263.978 38.4444 264.096 38.2475C264.214 38.0505 264.234 37.8339 264.175 37.5976C264.116 37.3612 263.938 37.0461 263.643 36.6522C263.013 35.7659 262.226 35.2539 261.261 35.0963Z" fill="#E1B168"/>
</svg>
