<svg width="32" height="31" viewBox="0 0 32 31" fill="none" xmlns="http://www.w3.org/2000/svg">
<path d="M2.16579 7.86701C2.01862 7.63449 1.96668 7.35285 2.02103 7.08204C2.07538 6.81123 2.23171 6.57265 2.45676 6.4171C6.4057 3.54468 11.1418 2 16 2C20.8582 2 25.5943 3.54468 29.5432 6.4171C29.7683 6.57265 29.9246 6.81123 29.979 7.08204C30.0333 7.35285 29.9814 7.63449 29.8342 7.86701L16.8861 28.5014C16.7922 28.6539 16.6616 28.7798 16.5066 28.867C16.3516 28.9542 16.1772 29 16 29C15.8228 29 15.6484 28.9542 15.4934 28.867C15.3384 28.7798 15.2078 28.6539 15.1139 28.5014L2.16579 7.86701Z" stroke="#E1B168" stroke-width="3" stroke-linecap="round" stroke-linejoin="round"/>
<path d="M5 11C8.10277 8.41337 11.9895 7 16 7C20.0105 7 23.8972 8.41337 27 11" stroke="#E1B168" stroke-width="3" stroke-linecap="round" stroke-linejoin="round"/>
<path d="M20.3447 21.2514C19.7388 21.1384 19.1728 20.8998 18.6918 20.5548C18.2108 20.2097 17.828 19.7677 17.574 19.264C17.3199 18.7602 17.2016 18.2086 17.2285 17.6531C17.2554 17.0976 17.4267 16.5534 17.7287 16.064C18.0308 15.5747 18.4554 15.1535 18.9685 14.8342C19.4817 14.5148 20.0693 14.3061 20.6846 14.2245C21.2999 14.143 21.9259 14.1909 22.5128 14.3646C23.0996 14.5382 23.6311 14.8326 24.0649 15.2245" stroke="#E1B168" stroke-width="3" stroke-linecap="round" stroke-linejoin="round"/>
<path d="M7 15.225C7.24017 14.6321 7.64325 14.1137 8.16584 13.7256C8.68844 13.3375 9.31077 13.0944 9.96582 13.0224C10.6209 12.9505 11.2839 13.0524 11.8834 13.3173C12.4829 13.5821 12.9962 13.9999 13.3682 14.5255C13.7401 15.0512 13.9565 15.6648 13.9941 16.3004C14.0317 16.936 13.8891 17.5695 13.5815 18.1326C13.274 18.6957 12.8133 19.1672 12.2489 19.4962C11.6845 19.8253 11.0379 19.9995 10.3786 20H10.1456" stroke="#E1B168" stroke-width="3" stroke-linecap="round" stroke-linejoin="round"/>
</svg>
