<svg width="15" height="12" viewBox="0 0 15 12" fill="none" xmlns="http://www.w3.org/2000/svg">
<path d="M2.52117 10.5802C3.22247 10.2793 3.83463 9.82183 4.35764 9.20789C4.88065 8.59396 5.19564 7.96798 5.30262 7.32997C5.36205 6.99291 5.39177 6.704 5.39177 6.46324C5.39177 6.18637 5.36205 5.95764 5.30262 5.77708C4.74395 6.36694 4.0367 6.66187 3.18087 6.66187C2.32504 6.66187 1.62968 6.40907 1.09478 5.90347C0.559885 5.39788 0.292438 4.69968 0.292438 3.80887C0.292439 2.96621 0.577715 2.28005 1.14827 1.75038C1.70694 1.22071 2.42013 0.955873 3.28785 0.955873C4.4765 0.955873 5.34422 1.38924 5.891 2.25597C6.14062 2.62915 6.33675 3.08659 6.47939 3.6283C6.62203 4.18205 6.69334 4.74783 6.69334 5.32565C6.69334 6.58964 6.37241 7.74528 5.73053 8.79258C5.08866 9.83989 4.13179 10.6585 2.85993 11.2483L2.52117 10.5802ZM10.0454 10.5802C10.7467 10.2793 11.3588 9.82183 11.8818 9.20789C12.4048 8.59396 12.7198 7.96798 12.8268 7.32997C12.8862 6.99291 12.916 6.704 12.916 6.46324C12.916 6.18637 12.8862 5.95765 12.8268 5.77708C12.2681 6.36694 11.5609 6.66187 10.7051 6.66187C9.84922 6.66187 9.15386 6.40907 8.61897 5.90347C8.08407 5.39788 7.81662 4.69968 7.81662 3.80887C7.81662 2.96621 8.1019 2.28005 8.67245 1.75038C9.23112 1.22071 9.94432 0.955873 10.812 0.955873C12.0007 0.955873 12.8684 1.38924 13.4152 2.25597C13.6648 2.62915 13.8609 3.08659 14.0036 3.6283C14.1462 4.18205 14.2175 4.74783 14.2175 5.32565C14.2175 6.58964 13.8966 7.74528 13.2547 8.79258C12.6128 9.83989 11.656 10.6585 10.3841 11.2483L10.0454 10.5802Z" fill="#292E36"/>
</svg>
