<svg width="27" height="21" viewBox="0 0 27 21" fill="none" xmlns="http://www.w3.org/2000/svg">
<path d="M26.165 2.64942C25.2096 3.06199 24.1987 3.3338 23.1643 3.45626C24.2514 2.82365 25.0689 1.81863 25.4635 0.629696C24.4357 1.22696 23.3132 1.64603 22.1439 1.86895C21.6515 1.35613 21.0593 0.948161 20.4034 0.669851C19.7474 0.39154 19.0413 0.248699 18.3281 0.250009C15.4404 0.250009 13.1035 2.53868 13.1035 5.35997C13.1014 5.7524 13.1467 6.14366 13.2382 6.5254C11.1675 6.42893 9.13991 5.90397 7.28505 4.98411C5.4302 4.06425 3.78897 2.76974 2.46637 1.18341C2.00237 1.96077 1.75698 2.84773 1.75585 3.75157C1.75585 5.52344 2.68605 7.08966 4.09064 8.00723C3.25846 7.98761 2.44333 7.76872 1.71446 7.36915V7.43243C1.71446 9.91094 3.51862 11.9729 5.90647 12.4422C5.45744 12.5612 4.99472 12.6214 4.53001 12.6215C4.20026 12.6221 3.87126 12.5903 3.5478 12.5266C4.21163 14.5568 6.14367 16.0334 8.43229 16.0756C6.57262 17.4999 4.28943 18.2697 1.94157 18.2641C1.52482 18.2635 1.10846 18.2388 0.69458 18.1902C3.08306 19.7059 5.85948 20.5077 8.69336 20.5C18.317 20.5 23.5745 12.7111 23.5745 5.95587C23.5745 5.73438 23.5686 5.5129 23.558 5.29669C24.5785 4.57531 25.4613 3.67886 26.165 2.64942Z" fill="white"/>
</svg>
