<svg width="20" height="20" viewBox="0 0 20 20" fill="none" xmlns="http://www.w3.org/2000/svg">
<g clip-path="url(#clip0_21_45)">
<path d="M20 10C20 4.48596 15.5139 0 10 0C9.07196 0 8.17726 0.136729 7.32392 0.374606L7.30399 0.361381C7.29933 0.368087 7.29598 0.375352 7.29132 0.382803C3.09129 1.56791 0 5.42537 0 10C0 15.514 4.48596 20 10 20C10.9286 20 11.8227 19.8633 12.6761 19.6254L12.696 19.6394C12.7007 19.6327 12.7048 19.6254 12.7087 19.6179C16.9085 18.4319 20 14.5739 20 10ZM0.995287 10.486H4.59922C4.63517 11.5601 4.75514 12.6167 4.97252 13.6419H1.74469C1.31271 12.6673 1.05471 11.6033 0.995287 10.486ZM19.0045 9.51456H15.4013C15.3646 8.43992 15.2454 7.38316 15.0273 6.35788H18.2553C18.6873 7.33268 18.9453 8.3967 19.0045 9.51456ZM14.4306 9.51456H10.4853V6.35788H14.0359C14.2652 7.38129 14.3926 8.43805 14.4306 9.51456ZM10.486 5.38793V0.995287C10.9573 1.02062 11.42 1.07259 11.8701 1.16722C12.7087 2.46857 13.3547 3.88596 13.7867 5.38793H10.486ZM9.51456 5.38793H6.13919C6.53727 3.9126 7.13652 2.51253 7.92188 1.22124C8.43712 1.09923 8.96913 1.02453 9.51456 0.995287V5.38793ZM9.51456 6.35807V9.51474H5.55856C5.57923 8.44066 5.69119 7.38334 5.90317 6.35807H9.51456ZM4.5886 9.51456H0.994728C1.05415 8.39651 1.31215 7.33193 1.74413 6.35788H4.91943C4.71937 7.3867 4.60872 8.44197 4.5886 9.51456ZM5.56936 10.486H9.51474V13.6419H5.96334C5.73459 12.6185 5.60736 11.5619 5.56936 10.486ZM9.51456 14.6119V19.0045C9.04327 18.9792 8.57981 18.9272 8.13051 18.8326C7.29188 17.5312 6.64587 16.1139 6.21314 14.6119C6.21333 14.6119 9.51456 14.6119 9.51456 14.6119ZM10.486 14.6119H13.8606C13.462 16.0872 12.8633 17.4865 12.0779 18.7786C11.5627 18.9013 11.0307 18.9753 10.4853 19.0045V14.6119H10.486ZM10.486 13.6419V10.486H14.442C14.4213 11.5593 14.3094 12.6167 14.0966 13.6419C14.0966 13.6419 10.486 13.6419 10.486 13.6419ZM15.4112 10.486H19.0053C18.9458 11.604 18.6879 12.6681 18.2559 13.6419H15.0806C15.2806 12.6133 15.3913 11.558 15.4112 10.486ZM17.7486 5.38793H14.7892C14.4273 4.05659 13.9173 2.78133 13.2552 1.58728C15.1433 2.31992 16.7213 3.66857 17.7486 5.38793ZM6.56055 1.65471C5.94397 2.832 5.47119 4.08397 5.1398 5.38737H2.25136C3.24591 3.7239 4.75272 2.40262 6.56055 1.65471ZM2.25136 14.6119H5.21133C5.57271 15.9432 6.08275 17.2185 6.74459 18.4125C4.85666 17.6799 3.27869 16.3312 2.25136 14.6119ZM13.4393 18.3453C14.0558 17.168 14.5286 15.916 14.86 14.6126H17.7486C16.7539 16.2759 15.2473 17.5972 13.4393 18.3453Z" fill="white"/>
</g>
<defs>
<clipPath id="clip0_21_45">
<rect width="20" height="20" fill="white"/>
</clipPath>
</defs>
</svg>
